<svg version="1.1" id="Layer_1" xmlns="http://www.w3.org/2000/svg" xmlns:xlink="http://www.w3.org/1999/xlink" x="0px" y="0px"
	 width="100%" viewBox="0 0 704 704" enable-background="new 0 0 704 704" xml:space="preserve">
<path fill="#000000" opacity="1.000000" stroke="none" 
	d="
M337.156311,414.525635 
	C330.015198,416.123932 323.239960,416.256897 316.424591,415.187103 
	C314.188385,414.836121 311.934265,414.477997 311.937897,411.561005 
	C311.947845,403.570984 312.045715,395.580902 312.168549,387.591736 
	C312.177673,386.999359 312.663544,386.414368 313.080841,385.485107 
	C318.724304,386.605133 324.128052,388.690094 330.107910,387.168518 
	C342.526703,384.008514 350.060364,372.462524 347.384796,359.853333 
	C344.806427,347.702301 333.039459,340.118500 320.538208,342.550720 
	C309.098541,344.776398 302.332642,353.156311 302.195709,365.867554 
	C302.052185,379.189087 302.253387,392.514282 302.296143,405.837891 
	C302.299774,406.972656 302.660370,408.176788 301.323090,409.630890 
	C296.066559,407.823700 291.827423,404.136719 288.061646,400.077393 
	C265.375885,375.623138 270.838806,338.201294 298.439362,321.138184 
	C327.703613,303.046539 366.372406,319.053040 374.784821,352.785950 
	C381.190094,378.470642 365.368835,406.567322 339.877228,413.483673 
	C339.078949,413.700256 338.326050,414.084137 337.156311,414.525635 
z"/>
<path fill="#000000" opacity="1.000000" stroke="none" 
	d="
M211.400482,401.403992 
	C196.251617,416.047089 168.361710,424.605865 141.019318,403.325592 
	C139.666901,404.922913 140.335098,406.822510 140.329819,408.534851 
	C140.268234,428.518738 140.295685,448.502899 140.272827,468.486969 
	C140.265579,474.836639 139.926743,475.083984 132.248581,475.055847 
	C125.085648,475.029572 124.743004,474.757599 124.741852,468.492432 
	C124.733772,424.693970 124.777466,380.895386 124.675247,337.097168 
	C124.666283,333.254425 125.629272,330.439056 128.873993,328.199738 
	C132.219604,325.890778 135.270691,323.155121 138.101990,320.885620 
	C140.932571,322.224213 139.798325,324.374115 141.205246,326.384827 
	C157.545761,313.265472 175.737488,309.819061 195.471054,317.646667 
	C205.882507,321.776550 213.988327,329.005371 219.548172,338.578796 
	C230.629715,357.660004 229.007736,383.818176 211.400482,401.403992 
M211.210876,369.773560 
	C214.572952,347.320465 196.467545,323.459595 166.264267,329.899658 
	C143.343796,334.786804 132.373795,362.091034 144.262466,383.151917 
	C151.635422,396.213165 167.973694,403.550232 182.676361,400.402527 
	C197.759277,397.173431 209.348724,384.991608 211.210876,369.773560 
z"/>
<path fill="#000000" opacity="1.000000" stroke="none" 
	d="
M391.916016,259.046143 
	C399.149628,259.224304 399.239410,259.302094 399.243134,266.232300 
	C399.252838,284.230042 399.247711,302.227753 399.248474,320.225494 
	C399.248566,321.997772 399.248505,323.770081 399.248505,326.967072 
	C414.186035,315.122986 429.863495,310.743591 447.324829,315.263336 
	C460.285278,318.618042 470.278320,326.242249 477.628784,337.428650 
	C490.003479,356.261200 487.242249,384.265656 471.084167,400.595215 
	C455.965912,415.873962 427.878845,424.922943 399.944519,403.435059 
	C399.753510,403.673920 399.412598,403.901276 399.392670,404.153961 
	C398.790009,411.797089 399.024750,411.231445 391.952057,408.360077 
	C385.075714,405.568420 383.467743,401.286346 383.525055,394.198975 
	C383.868591,351.707031 383.686493,309.210846 383.683716,266.716064 
	C383.683197,259.139740 383.690033,259.139740 391.916016,259.046143 
M459.878387,337.608154 
	C450.287109,328.725006 438.698273,327.654541 426.678925,329.852539 
	C412.830322,332.385071 396.771759,348.311218 400.167664,370.433197 
	C403.360474,391.232056 424.131775,405.362335 444.337799,399.992645 
	C457.594879,396.469604 466.807739,388.373566 470.484558,375.080292 
	C474.386597,360.972534 471.032654,348.439240 459.878387,337.608154 
z"/>
<path fill="#000000" opacity="1.000000" stroke="none" 
	d="
M499.763275,394.175446 
	C486.217529,375.365143 487.402710,349.268616 502.687134,331.518585 
	C511.995758,320.708344 523.833618,314.679413 538.226013,313.695618 
	C552.388428,312.727509 564.597961,317.574310 576.321411,326.666046 
	C576.225098,320.267853 578.963501,321.010529 582.707825,322.600433 
	C592.195312,326.629028 592.239075,326.495300 592.236267,337.038086 
	C592.229919,361.181152 592.244141,385.324219 592.235168,409.467285 
	C592.232666,416.161774 592.138123,416.236176 585.620972,416.267242 
	C584.289001,416.273590 582.950256,416.170776 581.626221,416.271393 
	C578.006226,416.546631 576.399963,414.999451 576.648743,411.314087 
	C576.823059,408.730652 576.682373,406.125946 576.682373,402.461395 
	C562.408386,413.822449 547.362915,418.814331 530.284668,414.844055 
	C517.689941,411.916138 507.356445,405.296753 499.763275,394.175446 
M511.438324,385.006592 
	C521.821167,399.622009 535.522644,403.346008 548.843567,400.110504 
	C573.475281,394.127716 580.698547,376.171692 575.930725,354.934601 
	C570.652405,331.422913 546.890991,323.861572 526.858032,331.748413 
	C505.876587,340.008545 500.149139,365.935883 511.438324,385.006592 
z"/>
<path fill="#000000" opacity="1.000000" stroke="none" 
	d="
M275.247925,325.632080 
	C275.122864,328.709595 273.151093,329.192993 271.140411,329.635193 
	C257.420227,332.652191 243.856110,347.247833 244.231659,364.953369 
	C244.559540,380.410675 243.763977,395.889404 243.659973,411.359985 
	C243.634232,415.188263 241.930740,416.328308 238.471405,416.215210 
	C235.086823,416.104614 231.677170,416.646881 231.691833,411.414948 
	C231.778564,380.450012 231.773163,349.484528 231.674896,318.519653 
	C231.659866,313.785095 234.467438,313.752930 237.911026,313.687988 
	C241.576279,313.618927 244.183838,314.249115 243.975891,318.743042 
	C243.824722,322.010101 243.946350,325.289764 243.946350,328.585632 
	C246.811325,328.787048 247.890427,327.087860 249.178757,325.943634 
	C255.288528,320.517334 262.498383,317.267731 270.230743,314.979523 
	C273.595642,313.983734 275.400024,314.967834 275.294434,318.693420 
	C275.233154,320.856049 275.274261,323.021606 275.247925,325.632080 
z"/>
</svg>